<?xml version="1.0" encoding="UTF-8"?>
<!DOCTYPE svg PUBLIC "-//W3C//DTD SVG 1.1//EN" "http://www.w3.org/Graphics/SVG/1.1/DTD/svg11.dtd">
<!-- Creator: CorelDRAW 2020 (64-Bit) -->
<svg xmlns="http://www.w3.org/2000/svg" xml:space="preserve" width="11.6929in" height="8.26772in" version="1.1" style="shape-rendering:geometricPrecision; text-rendering:geometricPrecision; image-rendering:optimizeQuality; fill-rule:evenodd; clip-rule:evenodd"
viewBox="0 0 11692.91 8267.72"
 xmlns:xlink="http://www.w3.org/1999/xlink"
 xmlns:xodm="http://www.corel.com/coreldraw/odm/2003">
 <defs>
  <style type="text/css">
   <![CDATA[
    .str0 {stroke:black;stroke-width:3;stroke-miterlimit:2.61313}
    .fil3 {fill:#47B300}
    .fil2 {fill:#FF6700}
    .fil4 {fill:white}
    .fil0 {fill:black;fill-rule:nonzero}
    .fil1 {fill:navy;fill-rule:nonzero}
   ]]>
  </style>
 </defs>
 <g id="Layer_x0020_1">
  <metadata id="CorelCorpID_0Corel-Layer"/>
  <g id="_1699595808288">
   <path class="fil0 str0" d="M766.11 2806.31l-428 0 0 1692.86 428 0 0 -1692.86zm267.8 1692.86l428 0 0 -676.67 -54.99 -327.57 11.96 -2.39 148.24 339.53 382.57 667.1 432.78 0 0 -1692.86 -425.61 0 0 767.52c2.39,0 45.43,291.71 47.82,291.71l-11.95 2.39 -143.46 -339.53 -408.87 -722.09 -406.48 0 0 1692.86zm1616.35 -1692.86l0 1692.86 633.63 0c339.53,2.39 657.54,-167.37 657.54,-557.11l0 -569.07c0,-394.52 -318.01,-566.68 -657.54,-566.68l-633.63 0zm430.39 1291.16l0 -891.86 217.58 0c143.46,0 212.8,69.34 212.8,179.33l0 528.42c0,109.99 -66.95,184.11 -212.8,184.11l-217.58 0zm1518.31 -1291.16l-428 0 0 1692.86 428 0 0 -1692.86zm1099.88 0l-389.74 0 -590.59 1692.86 459.08 0 105.21 -339.53 451.91 0 109.99 339.53 459.08 0 -604.94 -1692.86zm-320.4 973.15l124.33 -494.94 11.95 0 117.16 494.94 -253.45 0zm1037.71 719.7l428 0 0 -676.67 -54.99 -327.57 11.96 -2.39 148.24 339.53 382.57 667.1 432.78 0 0 -1692.86 -425.61 0 0 767.52c2.39,0 45.43,291.71 47.82,291.71l-11.95 2.39 -143.46 -339.53 -408.87 -722.09 -406.48 0 0 1692.86z"/>
   <path class="fil1 str0" d="M8282.49 4500.21l0 -789.04 932.5 0 0 789.04 198.46 0 0 -1685.69 -198.46 0 0 719.7 -932.5 0 0 -719.7 -198.46 0 0 1685.69 198.46 0zm2312.14 -1508.75c248.67,0 425.61,133.9 425.61,353.87 0,200.85 -176.94,341.92 -425.61,341.92l-530.81 0 0 -695.79 530.81 0zm-530.81 872.73l537.98 0 399.3 636.02 231.93 0 -430.39 -664.71c243.89,-52.61 416.04,-255.84 416.04,-490.17 0,-310.83 -253.45,-530.81 -609.72,-530.81l-743.61 0 0 1685.69 198.46 0 0 -636.02z"/>
   <polygon class="fil2" points="782.54,3375.86 782.54,2814.52 354.54,2814.52 354.54,3375.86 "/>
   <polygon class="fil2" points="1050.33,2814.52 1050.33,3375.86 1774.65,3375.86 1456.8,2814.52 "/>
   <polygon class="fil2" points="1973.27,2814.52 1973.27,3375.86 2398.87,3375.86 2398.87,2814.52 "/>
   <path class="fil2" d="M2666.68 2814.52l0 561.34 430.39 0 0 -162.04 217.58 0c135.8,0 205.17,62.12 212.22,162.04l430.96 0c-2.86,-390.74 -319.53,-561.34 -657.52,-561.34l-633.63 0z"/>
   <polygon class="fil2" points="4187.38,2814.52 4187.38,3375.86 4615.37,3375.86 4615.37,2814.52 "/>
   <polygon class="fil2" points="5325.51,2814.52 5129.67,3375.86 5498.3,3375.86 5519.19,3292.72 5531.13,3292.72 5550.82,3375.86 5915.84,3375.86 5715.25,2814.52 "/>
   <polygon class="fil2" points="6432.56,2814.52 6432.56,3375.86 7156.88,3375.86 6839.04,2814.52 "/>
   <polygon class="fil2" points="7355.5,2814.52 7355.5,3375.86 7781.11,3375.86 7781.11,2814.52 "/>
   <polygon class="fil3" points="7781.11,3938.88 7022.31,3938.88 7344.22,4500.21 7781.11,4500.21 "/>
   <polygon class="fil3" points="6860.56,4500.21 6860.56,3938.88 6432.56,3938.88 6432.56,4500.21 "/>
   <polygon class="fil3" points="6317.62,4500.21 6117.04,3938.88 4933.25,3938.88 4737.42,4500.21 5196.22,4500.21 5299.2,4167.85 5751.11,4167.85 5858.78,4500.21 "/>
   <polygon class="fil3" points="4615.37,4500.21 4615.37,3938.88 4187.38,3938.88 4187.38,4500.21 "/>
   <path class="fil3" d="M3425.28 4500.21c288.66,-36.01 532.56,-208.62 532.56,-549.94l0 -11.39 -430.96 0c-6.8,100.39 -74.16,166.81 -212.23,166.81l-217.58 0 0 -166.81 -430.39 0 0 561.33 758.6 0z"/>
   <polygon class="fil3" points="2398.87,4500.21 2398.87,3938.88 1640.07,3938.88 1961.98,4500.21 "/>
   <polygon class="fil3" points="1478.33,4500.21 1478.33,3938.88 1050.33,3938.88 1050.33,4500.21 "/>
   <polygon class="fil3" points="782.54,4500.21 782.54,3938.88 354.54,3938.88 354.54,4500.21 "/>
   <polygon class="fil4" points="354.54,3935.52 782.54,3935.52 782.54,3375.86 354.54,3375.86 "/>
   <path class="fil4" d="M1050.33 3377.54l0 559.65 428 0 0 -106.48 -55 -327.57 11.95 -2.39 148.24 339.53 55.57 96.91 759.77 0 0 -559.65 -425.61 0 0 204.5c2.39,0 45.43,291.72 47.83,291.72l-11.96 2.39 -143.46 -339.53 -90.07 -159.07 -725.27 0z"/>
   <polygon class="fil4" points="2666.68,3377.54 2666.68,3937.19 3097.06,3937.19 3097.06,3377.54 "/>
   <path class="fil4" d="M3527.45 3393.15l0 528.42c0,5.29 -0.16,10.5 -0.47,15.62l430.85 0 0 -556c0,-1.22 0,-2.44 -0.01,-3.65l-430.86 0c0.32,5.11 0.48,10.31 0.48,15.61z"/>
   <polygon class="fil4" points="4187.38,3377.54 4187.38,3937.19 4615.37,3937.19 4615.37,3377.54 "/>
   <polygon class="fil4" points="5129.09,3377.54 4933.84,3937.19 6116.43,3937.19 5916.44,3377.54 5551.21,3377.54 5648.3,3787.68 5394.85,3787.68 5497.88,3377.54 "/>
   <path class="fil4" d="M6432.56 3377.54l0 559.65 428 0 0 -106.48 -55 -327.57 11.95 -2.39 148.24 339.53 55.58 96.91 759.77 0 0 -559.65 -425.61 0 0 204.5c2.39,0 45.43,291.72 47.82,291.72l-11.96 2.39 -143.46 -339.53 -90.07 -159.07 -725.27 0z"/>
  </g>
 </g>
</svg>
